# xmcd
#
# Track frame offsets:
#	150
#	15822
#	31027
#	46084
#	65134
#
# Disc length: 1037 seconds
#
# Revision: 0
# Processed by: cddbd v1.5.1PL0 Copyright (c) Steve Scherf et al.
# Submitted via: dBpowerAMP V4.0
#
DISCID=2e040b05
DTITLE=VooDoo VenDors - Hex
DYEAR=1900
DGENRE=Blues
TTITLE0=Feel So Good
TTITLE1=Who Do You Love
TTITLE2=I Just Want To Make Love To You
TTITLE3=Baby What You Want Me To Do
TTITLE4=Pretty Thing
EXTD=
EXTT0=
EXTT1=
EXTT2=
EXTT3=
EXTT4=
PLAYORDER=
